<mxfile host="app.diagrams.net" modified="2020-12-28T03:10:25.734Z" agent="5.0 (Macintosh; Intel Mac OS X 10_15_7) AppleWebKit/537.36 (KHTML, like Gecko) Chrome/87.0.4280.88 Safari/537.36" etag="ORg5n4Qf2q41NwoRpefD" version="14.1.1" type="github">
  <diagram id="tD9U7uC2W2IqtDE2rcKv" name="Page-1">
    <mxGraphModel dx="1773" dy="1783" grid="1" gridSize="10" guides="1" tooltips="1" connect="1" arrows="1" fold="1" page="1" pageScale="1" pageWidth="827" pageHeight="1169" math="0" shadow="0">
      <root>
        <mxCell id="0" />
        <mxCell id="1" parent="0" />
        <mxCell id="9zZZePR5vG2BZI0FV6Ew-1" value="WidgetsFlutterBinding" style="swimlane;fontStyle=0;align=center;verticalAlign=top;childLayout=stackLayout;horizontal=1;startSize=26;horizontalStack=0;resizeParent=1;resizeLast=0;collapsible=1;marginBottom=0;rounded=0;shadow=0;strokeWidth=1;" vertex="1" parent="1">
          <mxGeometry x="675" y="520" width="160" height="70" as="geometry">
            <mxRectangle x="340" y="380" width="170" height="26" as="alternateBounds" />
          </mxGeometry>
        </mxCell>
        <mxCell id="9zZZePR5vG2BZI0FV6Ew-2" value=" " style="text;align=left;verticalAlign=top;spacingLeft=4;spacingRight=4;overflow=hidden;rotatable=0;points=[[0,0.5],[1,0.5]];portConstraint=eastwest;" vertex="1" parent="9zZZePR5vG2BZI0FV6Ew-1">
          <mxGeometry y="26" width="160" height="26" as="geometry" />
        </mxCell>
        <mxCell id="9zZZePR5vG2BZI0FV6Ew-3" value="" style="line;html=1;strokeWidth=1;align=left;verticalAlign=middle;spacingTop=-1;spacingLeft=3;spacingRight=3;rotatable=0;labelPosition=right;points=[];portConstraint=eastwest;" vertex="1" parent="9zZZePR5vG2BZI0FV6Ew-1">
          <mxGeometry y="52" width="160" height="8" as="geometry" />
        </mxCell>
        <mxCell id="9zZZePR5vG2BZI0FV6Ew-4" value="_&amp;BindingBase&amp;GestureBinding&amp;ServicesBinding&amp;WidgetsBinding" style="swimlane;fontStyle=0;align=center;verticalAlign=top;childLayout=stackLayout;horizontal=1;startSize=26;horizontalStack=0;resizeParent=1;resizeLast=0;collapsible=1;marginBottom=0;rounded=0;shadow=0;strokeWidth=1;" vertex="1" parent="1">
          <mxGeometry x="560" y="375" width="390" height="70" as="geometry">
            <mxRectangle x="340" y="380" width="170" height="26" as="alternateBounds" />
          </mxGeometry>
        </mxCell>
        <mxCell id="9zZZePR5vG2BZI0FV6Ew-5" value=" " style="text;align=left;verticalAlign=top;spacingLeft=4;spacingRight=4;overflow=hidden;rotatable=0;points=[[0,0.5],[1,0.5]];portConstraint=eastwest;" vertex="1" parent="9zZZePR5vG2BZI0FV6Ew-4">
          <mxGeometry y="26" width="390" height="26" as="geometry" />
        </mxCell>
        <mxCell id="9zZZePR5vG2BZI0FV6Ew-6" value="" style="line;html=1;strokeWidth=1;align=left;verticalAlign=middle;spacingTop=-1;spacingLeft=3;spacingRight=3;rotatable=0;labelPosition=right;points=[];portConstraint=eastwest;" vertex="1" parent="9zZZePR5vG2BZI0FV6Ew-4">
          <mxGeometry y="52" width="390" height="8" as="geometry" />
        </mxCell>
        <mxCell id="9zZZePR5vG2BZI0FV6Ew-9" value="class WidgetsFlutterBinding extends BindingBase with GestureBinding, ServicesBinding,..., WidgetsBinding" style="text;html=1;align=center;verticalAlign=middle;resizable=0;points=[];autosize=1;" vertex="1" parent="1">
          <mxGeometry x="-260" y="50" width="590" height="20" as="geometry" />
        </mxCell>
        <mxCell id="9zZZePR5vG2BZI0FV6Ew-13" value="&lt;span style=&quot;color: rgb(0 , 0 , 0) ; font-family: &amp;#34;helvetica&amp;#34; ; font-size: 12px ; font-style: normal ; font-weight: 400 ; letter-spacing: normal ; text-align: center ; text-indent: 0px ; text-transform: none ; word-spacing: 0px ; background-color: rgb(248 , 249 , 250) ; display: inline ; float: none&quot;&gt;_&amp;amp;BindingBase&amp;amp;&lt;span style=&quot;font-family: &amp;#34;helvetica&amp;#34;&quot;&gt;GestureBinding&lt;/span&gt;&lt;br&gt;&lt;/span&gt;" style="text;whiteSpace=wrap;html=1;" vertex="1" parent="1">
          <mxGeometry x="70" y="145" width="180" height="30" as="geometry" />
        </mxCell>
        <mxCell id="9zZZePR5vG2BZI0FV6Ew-16" value="class BindingBase with GestureBinding" style="text;html=1;align=center;verticalAlign=middle;resizable=0;points=[];autosize=1;" vertex="1" parent="1">
          <mxGeometry x="-260" y="150" width="220" height="20" as="geometry" />
        </mxCell>
        <mxCell id="9zZZePR5vG2BZI0FV6Ew-18" value="" style="shape=flexArrow;endArrow=classic;html=1;" edge="1" parent="1">
          <mxGeometry width="50" height="50" relative="1" as="geometry">
            <mxPoint x="-20" y="160" as="sourcePoint" />
            <mxPoint x="30" y="160" as="targetPoint" />
          </mxGeometry>
        </mxCell>
        <mxCell id="9zZZePR5vG2BZI0FV6Ew-19" value="class BindingBase with GestureBinding,&amp;nbsp;ServicesBinding" style="text;html=1;align=center;verticalAlign=middle;resizable=0;points=[];autosize=1;" vertex="1" parent="1">
          <mxGeometry x="-599" y="200" width="320" height="20" as="geometry" />
        </mxCell>
        <mxCell id="9zZZePR5vG2BZI0FV6Ew-20" value="class&amp;nbsp;&lt;span style=&quot;font-family: &amp;#34;helvetica&amp;#34;&quot;&gt;_&amp;amp;BindingBase&amp;amp;&lt;/span&gt;&lt;span style=&quot;font-family: &amp;#34;helvetica&amp;#34;&quot;&gt;GestureBinding&lt;/span&gt;&amp;nbsp;with ServicesBinding" style="text;html=1;align=center;verticalAlign=middle;resizable=0;points=[];autosize=1;" vertex="1" parent="1">
          <mxGeometry x="-370" y="270" width="330" height="20" as="geometry" />
        </mxCell>
        <mxCell id="9zZZePR5vG2BZI0FV6Ew-21" value="&lt;span style=&quot;color: rgb(0 , 0 , 0) ; font-family: &amp;#34;helvetica&amp;#34; ; font-size: 12px ; font-style: normal ; font-weight: 400 ; letter-spacing: normal ; text-align: center ; text-indent: 0px ; text-transform: none ; word-spacing: 0px ; background-color: rgb(248 , 249 , 250) ; display: inline ; float: none&quot;&gt;_&amp;amp;BindingBase&amp;amp;&lt;span style=&quot;font-family: &amp;#34;helvetica&amp;#34;&quot;&gt;GestureBinding&amp;amp;&lt;/span&gt;&lt;span style=&quot;font-family: &amp;#34;helvetica&amp;#34;&quot;&gt;ServicesBinding&lt;/span&gt;&lt;br&gt;&lt;/span&gt;" style="text;whiteSpace=wrap;html=1;" vertex="1" parent="1">
          <mxGeometry x="60" y="265" width="270" height="30" as="geometry" />
        </mxCell>
        <mxCell id="9zZZePR5vG2BZI0FV6Ew-22" value="" style="shape=flexArrow;endArrow=classic;html=1;" edge="1" parent="1">
          <mxGeometry width="50" height="50" relative="1" as="geometry">
            <mxPoint x="-20" y="279.5" as="sourcePoint" />
            <mxPoint x="30" y="279.5" as="targetPoint" />
          </mxGeometry>
        </mxCell>
        <mxCell id="9zZZePR5vG2BZI0FV6Ew-23" value="" style="shape=flexArrow;endArrow=classic;html=1;" edge="1" parent="1">
          <mxGeometry width="50" height="50" relative="1" as="geometry">
            <mxPoint x="160" y="180" as="sourcePoint" />
            <mxPoint x="159.5" y="250" as="targetPoint" />
          </mxGeometry>
        </mxCell>
        <mxCell id="9zZZePR5vG2BZI0FV6Ew-24" value="" style="shape=flexArrow;endArrow=classic;html=1;" edge="1" parent="1">
          <mxGeometry width="50" height="50" relative="1" as="geometry">
            <mxPoint x="-150" y="180" as="sourcePoint" />
            <mxPoint x="-150.5" y="250" as="targetPoint" />
          </mxGeometry>
        </mxCell>
        <mxCell id="9zZZePR5vG2BZI0FV6Ew-25" value="class&amp;nbsp;&lt;span style=&quot;font-family: &amp;#34;helvetica&amp;#34;&quot;&gt;_&amp;amp;BindingBase&amp;amp;&lt;/span&gt;&lt;span style=&quot;font-family: &amp;#34;helvetica&amp;#34;&quot;&gt;GestureBinding&lt;/span&gt;&amp;nbsp;with ServicesBinding,&amp;nbsp;WidgetsBinding" style="text;html=1;align=center;verticalAlign=middle;resizable=0;points=[];autosize=1;" vertex="1" parent="1">
          <mxGeometry x="-460" y="400" width="420" height="20" as="geometry" />
        </mxCell>
        <mxCell id="9zZZePR5vG2BZI0FV6Ew-26" value="" style="shape=flexArrow;endArrow=classic;html=1;" edge="1" parent="1">
          <mxGeometry width="50" height="50" relative="1" as="geometry">
            <mxPoint x="-150" y="310" as="sourcePoint" />
            <mxPoint x="-150.5" y="380" as="targetPoint" />
          </mxGeometry>
        </mxCell>
        <mxCell id="9zZZePR5vG2BZI0FV6Ew-27" value="class BindingBase with GestureBinding,&amp;nbsp;ServicesBinding,&amp;nbsp;WidgetsBinding" style="text;html=1;align=center;verticalAlign=middle;resizable=0;points=[];autosize=1;" vertex="1" parent="1">
          <mxGeometry x="-644" y="340" width="410" height="20" as="geometry" />
        </mxCell>
        <mxCell id="9zZZePR5vG2BZI0FV6Ew-28" value="&lt;span style=&quot;color: rgb(0 , 0 , 0) ; font-family: &amp;#34;helvetica&amp;#34; ; font-size: 12px ; font-style: normal ; font-weight: 400 ; letter-spacing: normal ; text-align: center ; text-indent: 0px ; text-transform: none ; word-spacing: 0px ; background-color: rgb(248 , 249 , 250) ; display: inline ; float: none&quot;&gt;_&amp;amp;BindingBase&amp;amp;&lt;span style=&quot;font-family: &amp;#34;helvetica&amp;#34;&quot;&gt;GestureBinding&amp;amp;&lt;/span&gt;&lt;span style=&quot;font-family: &amp;#34;helvetica&amp;#34;&quot;&gt;ServicesBinding&amp;amp;&lt;/span&gt;&lt;span style=&quot;font-family: &amp;#34;helvetica&amp;#34;&quot;&gt;WidgetsBinding&lt;/span&gt;&lt;br&gt;&lt;/span&gt;" style="text;whiteSpace=wrap;html=1;" vertex="1" parent="1">
          <mxGeometry x="60" y="395" width="270" height="30" as="geometry" />
        </mxCell>
        <mxCell id="9zZZePR5vG2BZI0FV6Ew-29" value="" style="shape=flexArrow;endArrow=classic;html=1;" edge="1" parent="1">
          <mxGeometry width="50" height="50" relative="1" as="geometry">
            <mxPoint x="-20" y="409.5" as="sourcePoint" />
            <mxPoint x="30" y="409.5" as="targetPoint" />
          </mxGeometry>
        </mxCell>
        <mxCell id="9zZZePR5vG2BZI0FV6Ew-31" value="" style="shape=flexArrow;endArrow=classic;html=1;" edge="1" parent="1">
          <mxGeometry width="50" height="50" relative="1" as="geometry">
            <mxPoint x="160" y="310" as="sourcePoint" />
            <mxPoint x="159.5" y="380" as="targetPoint" />
          </mxGeometry>
        </mxCell>
        <mxCell id="9zZZePR5vG2BZI0FV6Ew-33" value="_&amp;BindingBase&amp;GestureBinding&amp;ServicesBinding" style="swimlane;fontStyle=0;align=center;verticalAlign=top;childLayout=stackLayout;horizontal=1;startSize=26;horizontalStack=0;resizeParent=1;resizeLast=0;collapsible=1;marginBottom=0;rounded=0;shadow=0;strokeWidth=1;" vertex="1" parent="1">
          <mxGeometry x="605" y="245" width="300" height="70" as="geometry">
            <mxRectangle x="340" y="380" width="170" height="26" as="alternateBounds" />
          </mxGeometry>
        </mxCell>
        <mxCell id="9zZZePR5vG2BZI0FV6Ew-34" value=" " style="text;align=left;verticalAlign=top;spacingLeft=4;spacingRight=4;overflow=hidden;rotatable=0;points=[[0,0.5],[1,0.5]];portConstraint=eastwest;" vertex="1" parent="9zZZePR5vG2BZI0FV6Ew-33">
          <mxGeometry y="26" width="300" height="26" as="geometry" />
        </mxCell>
        <mxCell id="9zZZePR5vG2BZI0FV6Ew-35" value="" style="line;html=1;strokeWidth=1;align=left;verticalAlign=middle;spacingTop=-1;spacingLeft=3;spacingRight=3;rotatable=0;labelPosition=right;points=[];portConstraint=eastwest;" vertex="1" parent="9zZZePR5vG2BZI0FV6Ew-33">
          <mxGeometry y="52" width="300" height="8" as="geometry" />
        </mxCell>
        <mxCell id="9zZZePR5vG2BZI0FV6Ew-36" value="_&amp;BindingBase&amp;GestureBinding" style="swimlane;fontStyle=0;align=center;verticalAlign=top;childLayout=stackLayout;horizontal=1;startSize=26;horizontalStack=0;resizeParent=1;resizeLast=0;collapsible=1;marginBottom=0;rounded=0;shadow=0;strokeWidth=1;" vertex="1" parent="1">
          <mxGeometry x="647.5" y="125" width="215" height="70" as="geometry">
            <mxRectangle x="340" y="380" width="170" height="26" as="alternateBounds" />
          </mxGeometry>
        </mxCell>
        <mxCell id="9zZZePR5vG2BZI0FV6Ew-37" value=" " style="text;align=left;verticalAlign=top;spacingLeft=4;spacingRight=4;overflow=hidden;rotatable=0;points=[[0,0.5],[1,0.5]];portConstraint=eastwest;" vertex="1" parent="9zZZePR5vG2BZI0FV6Ew-36">
          <mxGeometry y="26" width="215" height="26" as="geometry" />
        </mxCell>
        <mxCell id="9zZZePR5vG2BZI0FV6Ew-38" value="" style="line;html=1;strokeWidth=1;align=left;verticalAlign=middle;spacingTop=-1;spacingLeft=3;spacingRight=3;rotatable=0;labelPosition=right;points=[];portConstraint=eastwest;" vertex="1" parent="9zZZePR5vG2BZI0FV6Ew-36">
          <mxGeometry y="52" width="215" height="8" as="geometry" />
        </mxCell>
        <mxCell id="9zZZePR5vG2BZI0FV6Ew-39" style="edgeStyle=orthogonalEdgeStyle;rounded=0;orthogonalLoop=1;jettySize=auto;html=1;exitX=1;exitY=0.5;exitDx=0;exitDy=0;" edge="1" parent="9zZZePR5vG2BZI0FV6Ew-36" source="9zZZePR5vG2BZI0FV6Ew-37" target="9zZZePR5vG2BZI0FV6Ew-37">
          <mxGeometry relative="1" as="geometry" />
        </mxCell>
        <mxCell id="9zZZePR5vG2BZI0FV6Ew-41" value="BindingBase" style="swimlane;fontStyle=0;align=center;verticalAlign=top;childLayout=stackLayout;horizontal=1;startSize=26;horizontalStack=0;resizeParent=1;resizeLast=0;collapsible=1;marginBottom=0;rounded=0;shadow=0;strokeWidth=1;" vertex="1" parent="1">
          <mxGeometry x="647.5" y="-20" width="215" height="70" as="geometry">
            <mxRectangle x="340" y="380" width="170" height="26" as="alternateBounds" />
          </mxGeometry>
        </mxCell>
        <mxCell id="9zZZePR5vG2BZI0FV6Ew-42" value=" " style="text;align=left;verticalAlign=top;spacingLeft=4;spacingRight=4;overflow=hidden;rotatable=0;points=[[0,0.5],[1,0.5]];portConstraint=eastwest;" vertex="1" parent="9zZZePR5vG2BZI0FV6Ew-41">
          <mxGeometry y="26" width="215" height="26" as="geometry" />
        </mxCell>
        <mxCell id="9zZZePR5vG2BZI0FV6Ew-43" value="" style="line;html=1;strokeWidth=1;align=left;verticalAlign=middle;spacingTop=-1;spacingLeft=3;spacingRight=3;rotatable=0;labelPosition=right;points=[];portConstraint=eastwest;" vertex="1" parent="9zZZePR5vG2BZI0FV6Ew-41">
          <mxGeometry y="52" width="215" height="8" as="geometry" />
        </mxCell>
        <mxCell id="9zZZePR5vG2BZI0FV6Ew-44" style="edgeStyle=orthogonalEdgeStyle;rounded=0;orthogonalLoop=1;jettySize=auto;html=1;exitX=1;exitY=0.5;exitDx=0;exitDy=0;" edge="1" parent="9zZZePR5vG2BZI0FV6Ew-41" source="9zZZePR5vG2BZI0FV6Ew-42" target="9zZZePR5vG2BZI0FV6Ew-42">
          <mxGeometry relative="1" as="geometry" />
        </mxCell>
        <mxCell id="9zZZePR5vG2BZI0FV6Ew-45" value="Extends" style="endArrow=block;endSize=16;endFill=0;html=1;" edge="1" parent="1">
          <mxGeometry width="160" relative="1" as="geometry">
            <mxPoint x="754.5" y="515" as="sourcePoint" />
            <mxPoint x="754.5" y="445" as="targetPoint" />
          </mxGeometry>
        </mxCell>
        <mxCell id="9zZZePR5vG2BZI0FV6Ew-46" value="Extends" style="endArrow=block;endSize=16;endFill=0;html=1;" edge="1" parent="1">
          <mxGeometry width="160" relative="1" as="geometry">
            <mxPoint x="750" y="375" as="sourcePoint" />
            <mxPoint x="750" y="320" as="targetPoint" />
          </mxGeometry>
        </mxCell>
        <mxCell id="9zZZePR5vG2BZI0FV6Ew-47" value="Extends" style="endArrow=block;endSize=16;endFill=0;html=1;" edge="1" parent="1">
          <mxGeometry width="160" relative="1" as="geometry">
            <mxPoint x="754.5" y="245" as="sourcePoint" />
            <mxPoint x="755" y="190" as="targetPoint" />
          </mxGeometry>
        </mxCell>
        <mxCell id="9zZZePR5vG2BZI0FV6Ew-48" value="Extends" style="endArrow=block;endSize=16;endFill=0;html=1;" edge="1" parent="1">
          <mxGeometry width="160" relative="1" as="geometry">
            <mxPoint x="754.5" y="125" as="sourcePoint" />
            <mxPoint x="754.5" y="45" as="targetPoint" />
          </mxGeometry>
        </mxCell>
      </root>
    </mxGraphModel>
  </diagram>
</mxfile>
